<?xml version="1.0" encoding="UTF-8"?>
<svg width="186px" height="33px" viewBox="0 0 186 33" version="1.1" xmlns="http://www.w3.org/2000/svg" xmlns:xlink="http://www.w3.org/1999/xlink">
    <!-- Generator: sketchtool 61.2 (101010) - https://sketch.com -->
    <title>02E8F053-693A-4445-A9EB-DCD95849FC8D</title>
    <desc>Created with sketchtool.</desc>
    <g id="LRG" stroke="none" stroke-width="1" fill="none" fill-rule="evenodd">
        <g id="04-BDx_End-User_Signin_completed_password(show)" transform="translate(-1171.000000, -122.000000)">
            <g id="logo/BDxCare/basic" transform="translate(1171.000000, 110.000000)">
                <g id="Group" transform="translate(0.000000, 12.000000)">
                    <path d="M15.7749167,0 C18.9264167,0 21.3216667,0.780083333 22.9625,2.34025 C24.6024167,3.8995 25.4228333,6.02983333 25.4228333,8.73125 C25.4228333,10.1154167 25.0525,11.3446667 24.31275,12.42175 C23.573,13.49975 22.64075,14.2633333 21.5150833,14.7134167 C22.1906667,14.971 22.825,15.301 23.4208333,15.7025 C24.0148333,16.1049167 24.53,16.6191667 24.9645,17.2461667 C25.399,17.8731667 25.7436667,18.6138333 26.00125,19.4654167 C26.2588333,20.3179167 26.3871667,21.3225833 26.3871667,22.4803333 C26.3871667,25.40725 25.4063333,27.731 23.4446667,29.4506667 C21.483,31.1721667 18.4754167,32.032 14.42375,32.032 L0,32.032 L0,0 L15.7749167,0 Z M41.6339,0 C43.7880667,0 45.7827333,0.361166667 47.6160667,1.08533333 C49.4494,1.8095 51.0159833,2.84625 52.3185667,4.19741667 C53.62115,5.54766667 54.6423167,7.18758333 55.3829833,9.11716667 C56.1218167,11.0476667 56.49215,13.2348333 56.49215,15.67775 C56.49215,18.1225 56.16215,20.35 55.5030667,22.36025 C54.8430667,24.3695833 53.9025667,26.0910833 52.68065,27.5210833 C51.4578167,28.9529167 49.9948167,30.0620833 48.2907333,30.8504167 C46.5857333,31.63875 44.7047333,32.032 42.6468167,32.032 L29.2350667,32.032 L29.2350667,0 L41.6339,0 Z M64.822725,8.297025 L80.4051417,32.032275 L72.734475,32.032275 L68.5865583,24.8923583 L64.533975,32.032275 L57.0081417,32.032275 L64.9675583,19.924025 L57.249225,8.297025 L64.822725,8.297025 Z M15.05075,17.9455833 L6.46433333,17.9455833 L6.46433333,26.5805833 L14.9545,26.5805833 C16.4981667,26.5805833 17.7045,26.1460833 18.5725833,25.278 C19.4406667,24.4099167 19.8751667,23.3163333 19.8751667,21.99725 C19.8751667,20.58375 19.448,19.5543333 18.5964167,18.9108333 C17.7439167,18.2673333 16.5623333,17.9455833 15.05075,17.9455833 Z M40.7172333,5.54766667 L35.7479833,5.54766667 L35.7479833,26.5805833 L41.29565,26.5805833 C44.22165,26.5805833 46.34465,25.6721667 47.6637333,23.8553333 C48.9819,22.0385 49.6409833,19.31325 49.6409833,15.67775 C49.6409833,13.8774167 49.4805667,12.33375 49.1597333,11.0476667 C48.8379833,9.76158333 48.3145667,8.70741667 47.5913167,7.887 C46.8680667,7.0675 45.94315,6.47258333 44.8174833,6.10225 C43.6918167,5.73283333 42.3250667,5.54766667 40.7172333,5.54766667 Z M82.566825,10.2091917 L76.767075,14.085775 L75.163825,14.085775 L71.929,17.478 L76.766525,14.0862333 L80.4771917,13.99365 L72.5984417,18.4917333 L71.9261583,17.4811083 L71.0452417,16.1391083 L77.8496583,10.2091917 L82.566825,10.2091917 Z M81.8513667,7.115075 L77.8492,10.2097417 L75.5987833,10.2097417 L71.0447833,16.1387417 L70.3288667,15.054325 L74.8828667,7.115075 L81.8513667,7.115075 Z M14.52,5.54766667 L6.46433333,5.54766667 L6.46433333,12.4941667 L14.9059167,12.4941667 C17.60825,12.4941667 18.9585,11.3364167 18.9585,9.02091667 C18.9585,7.799 18.612,6.91441667 17.9208333,6.36808333 C17.22875,5.82175 16.09575,5.54766667 14.52,5.54766667 Z" id="BDx-Care-logo" fill="#19193E"></path>
                    <path d="M166.914367,18.0687833 L180.93295,18.0687833 C180.4352,14.4507 178.219617,11.8281167 174.194533,11.8281167 C170.577367,11.8281167 167.637617,14.2701167 166.914367,18.0687833 M174.01395,7.84886667 C181.15845,7.84886667 185.273367,13.2755333 185.273367,21.6410333 L166.868533,21.6410333 C167.457033,25.53045 170.305117,28.3336167 174.3302,28.3336167 C176.7722,28.3336167 179.6212,27.2482833 181.0237,25.8017833 L183.826867,28.6957 C181.74695,30.9112833 177.676033,32.3128667 174.376033,32.3128667 C167.864033,32.3128667 162.347533,27.2033667 162.347533,20.0130333 C162.347533,13.0042 167.546867,7.84886667 174.01395,7.84886667 Z M103.868142,0.160783333 C108.299308,0.160783333 112.370225,2.0152 115.309058,5.04478333 L112.098892,8.1202 C110.018058,5.85878333 107.078308,4.36645 103.868142,4.36645 C97.6733083,4.36645 92.427225,9.79311667 92.427225,16.2143667 C92.427225,22.68145 97.6733083,28.1072 103.868142,28.1072 C107.078308,28.1072 110.018058,26.6148667 112.098892,24.3543667 L115.309058,27.4288667 C112.370225,30.4135333 108.299308,32.3128667 103.868142,32.3128667 C95.1405583,32.3128667 87.724725,24.94195 87.724725,16.2143667 C87.724725,7.48678333 95.1405583,0.160783333 103.868142,0.160783333 Z M129.603283,7.8485 C135.888867,7.8485 139.370367,11.82775 139.370367,17.6165 L139.370367,31.77075 L134.984117,31.77075 L134.984117,28.5596667 C133.266283,31.0016667 130.0552,32.3125 127.207117,32.3125 C122.232367,32.3125 118.569367,29.4185833 118.569367,24.85175 C118.569367,20.1941667 122.775033,17.0738333 127.930367,17.0738333 C130.235783,17.0738333 132.723617,17.5706667 134.984117,18.33975 L134.984117,17.6165 C134.984117,14.67675 133.628367,11.5564167 128.969867,11.5564167 C126.663533,11.5564167 124.403033,12.4611667 122.368033,13.5015833 L120.740033,10.19975 C124.085867,8.52683333 127.025617,7.8485 129.603283,7.8485 Z M159.225642,7.8485 L159.225642,11.7379167 C154.387475,11.7379167 150.949975,14.4054167 150.542975,18.4754167 L150.542975,31.77075 L146.066892,31.77075 L146.066892,8.39116667 L150.542975,8.39116667 L150.542975,12.8681667 C152.035308,9.79366667 155.200558,7.8485 159.225642,7.8485 Z M128.6087,20.4196667 C125.488367,20.4196667 122.864867,22.1833333 122.864867,24.7160833 C122.864867,27.2488333 125.126283,28.7860833 128.065117,28.7860833 C130.959033,28.7860833 134.21595,27.3386667 134.984117,24.44475 L134.984117,21.3244167 C133.0857,20.7368333 130.915033,20.4196667 128.6087,20.4196667 Z" id="Fill-16" fill="#8A8B8A"></path>
                </g>
            </g>
        </g>
    </g>
</svg>