<?xml version="1.0" encoding="UTF-8"?>
<svg width="186px" height="33px" viewBox="0 0 186 33" version="1.1" xmlns="http://www.w3.org/2000/svg" xmlns:xlink="http://www.w3.org/1999/xlink">
    <!-- Generator: sketchtool 61.2 (101010) - https://sketch.com -->
    <title>346CFF1F-E53B-491C-A6FA-1D32E86EF48D</title>
    <desc>Created with sketchtool.</desc>
    <g id="Style-guide" stroke="none" stroke-width="1" fill="none" fill-rule="evenodd">
        <g id="logo" transform="translate(-1271.000000, -224.000000)" fill="#FFFFFF">
            <g id="logo/BDxCare-Copy" transform="translate(1271.000000, 212.000000)">
                <g id="Group" transform="translate(0.000000, 12.000000)">
                    <path d="M15.8067852,0 C18.9646519,0 21.3647407,0.794266667 23.0088889,2.3828 C24.6521185,3.9704 25.4741926,6.13946667 25.4741926,8.89 C25.4741926,10.2993333 25.1031111,11.5509333 24.3618667,12.6476 C23.6206222,13.7452 22.6864889,14.5226667 21.5585481,14.9809333 C22.2354963,15.2432 22.8711111,15.5792 23.4681481,15.988 C24.0633481,16.3977333 24.5795556,16.9213333 25.0149333,17.5597333 C25.4503111,18.1981333 25.7956741,18.9522667 26.0537778,19.8193333 C26.3118815,20.6873333 26.4404741,21.7102667 26.4404741,22.8890667 C26.4404741,25.8692 25.4576593,28.2352 23.4920296,29.9861333 C21.5264,31.7389333 18.5127407,32.6144 14.4528889,32.6144 L0,32.6144 L0,0 L15.8067852,0 Z M41.7180089,0 C43.8765274,0 45.8752237,0.367733333 47.7122607,1.10506667 C49.5492978,1.8424 51.1190459,2.898 52.4242607,4.27373333 C53.7294756,5.64853333 54.7527052,7.31826667 55.4948681,9.28293333 C56.2351941,11.2485333 56.6062756,13.4754667 56.6062756,15.9628 C56.6062756,18.452 56.2756089,20.72 55.6151941,22.7668 C54.9538607,24.8126667 54.0114607,26.5654667 52.7870756,28.0214667 C51.5617719,29.4793333 50.0958163,30.6086667 48.3882904,31.4113333 C46.6798459,32.214 44.7950459,32.6144 42.7329719,32.6144 L29.2941274,32.6144 L29.2941274,0 L41.7180089,0 Z M64.95368,8.44788 L80.5675763,32.61468 L72.8814133,32.61468 L68.725117,25.3449467 L64.6643467,32.61468 L57.1233096,32.61468 L65.0988059,20.28628 L57.36488,8.44788 L64.95368,8.44788 Z M15.0811556,18.2718667 L6.47739259,18.2718667 L6.47739259,27.0638667 L14.9847111,27.0638667 C16.5314963,27.0638667 17.7402667,26.6214667 18.6101037,25.7376 C19.4799407,24.8537333 19.9153185,23.7402667 19.9153185,22.3972 C19.9153185,20.958 19.4872889,19.9098667 18.6339852,19.2546667 C17.779763,18.5994667 16.5957926,18.2718667 15.0811556,18.2718667 Z M40.7994904,5.64853333 L35.8202015,5.64853333 L35.8202015,27.0638667 L41.3790756,27.0638667 C44.3109867,27.0638667 46.4382756,26.1389333 47.7600237,24.2890667 C49.0808533,22.4392 49.7412681,19.6644 49.7412681,15.9628 C49.7412681,14.1297333 49.5805274,12.558 49.2590459,11.2485333 C48.9366459,9.93906667 48.4121719,8.86573333 47.6874607,8.0304 C46.9627496,7.196 46.0359644,6.59026667 44.9080237,6.2132 C43.780083,5.83706667 42.4105719,5.64853333 40.7994904,5.64853333 Z M80.6397719,14.24808 L72.7451052,18.8279467 L72.0718311,17.79848 L76.9216089,14.3423467 L80.6397719,14.24808 Z M82.016723,7.24444 L78.007,10.394 L82.7336267,10.3948133 L76.92216,14.34188 L75.3156711,14.34188 L72.0714637,17.7989467 L71.1887674,16.4325467 L78.005,10.395 L75.7515081,10.3953733 L71.1883081,16.4321733 L70.4709452,15.32804 L75.0341452,7.24444 L82.016723,7.24444 Z M14.5493333,5.64853333 L6.47739259,5.64853333 L6.47739259,12.7213333 L14.9360296,12.7213333 C17.6438222,12.7213333 18.9968,11.5425333 18.9968,9.18493333 C18.9968,7.9408 18.6496,7.04013333 17.957037,6.48386667 C17.2635556,5.9276 16.1282667,5.64853333 14.5493333,5.64853333 Z" id="BDx-Care-logo"></path>
                    <path d="M167.251567,18.3973067 L181.298471,18.3973067 C180.799716,14.71344 178.579656,12.0431733 174.546441,12.0431733 C170.921967,12.0431733 167.976279,14.5295733 167.251567,18.3973067 M174.365493,7.99157333 C181.524427,7.99157333 185.647656,13.5169067 185.647656,22.0345067 L167.205641,22.0345067 C167.79533,25.99464 170.649167,28.8487733 174.682382,28.8487733 C177.129316,28.8487733 179.984071,27.7437067 181.389404,26.2709067 L184.198234,29.21744 C182.114116,31.4733067 178.034975,32.9003733 174.728308,32.9003733 C168.203153,32.9003733 162.675508,27.6979733 162.675508,20.3769067 C162.675508,13.24064 167.885345,7.99157333 174.365493,7.99157333 Z M104.077976,0.163706667 C108.518095,0.163706667 112.597236,2.05184 115.542006,5.13650667 L112.325354,8.26784 C110.240317,5.96530667 107.294628,4.44584 104.077976,4.44584 C97.8706281,4.44584 92.6139467,9.97117333 92.6139467,16.5091733 C92.6139467,23.09384 97.8706281,28.61824 104.077976,28.61824 C107.294628,28.61824 110.240317,27.0987733 112.325354,24.7971733 L115.542006,27.9275733 C112.597236,30.9665067 108.518095,32.9003733 104.077976,32.9003733 C95.3327615,32.9003733 87.9019467,25.39544 87.9019467,16.5091733 C87.9019467,7.62290667 95.3327615,0.163706667 104.077976,0.163706667 Z M129.865108,7.9912 C136.16339,7.9912 139.651923,12.0428 139.651923,17.9368 L139.651923,32.3484 L135.256812,32.3484 L135.256812,29.0789333 C133.535508,31.5653333 130.317938,32.9 127.464101,32.9 C122.479301,32.9 118.808901,29.9534667 118.808901,25.3036 C118.808901,20.5613333 123.023064,17.3842667 128.188812,17.3842667 C130.498886,17.3842667 132.991745,17.8901333 135.256812,18.6732 L135.256812,17.9368 C135.256812,14.9436 133.898323,11.7665333 129.230412,11.7665333 C126.919419,11.7665333 124.654353,12.6877333 122.615241,13.7470667 L120.983953,10.3852 C124.336545,8.68186667 127.282234,7.9912 129.865108,7.9912 Z M159.54731,7.9912 L159.54731,11.9513333 C154.699369,11.9513333 151.254924,14.6673333 150.847102,18.8113333 L150.847102,32.3484 L146.361976,32.3484 L146.361976,8.54373333 L150.847102,8.54373333 L150.846947,13.1007067 L150.975577,12.8439462 C152.519318,9.86323189 155.626129,7.9912 159.54731,7.9912 Z M128.868516,20.7909333 C125.741879,20.7909333 123.113079,22.5866667 123.113079,25.1654667 C123.113079,27.7442667 125.379064,29.3094667 128.323834,29.3094667 C131.223597,29.3094667 134.487093,27.8357333 135.256812,24.8892 L135.256812,21.7121333 C133.35456,21.1138667 131.179508,20.7909333 128.868516,20.7909333 Z" id="Fill-16"></path>
                </g>
            </g>
        </g>
    </g>
</svg>